<?xml version="1.0" encoding="UTF-8" standalone="no"?>
<!-- Created with Inkscape (http://www.inkscape.org/) -->

<svg
   xmlns:dc="http://purl.org/dc/elements/1.1/"
   xmlns:cc="http://creativecommons.org/ns#"
   xmlns:rdf="http://www.w3.org/1999/02/22-rdf-syntax-ns#"
   xmlns:svg="http://www.w3.org/2000/svg"
   xmlns="http://www.w3.org/2000/svg"
   xmlns:sodipodi="http://sodipodi.sourceforge.net/DTD/sodipodi-0.dtd"
   xmlns:inkscape="http://www.inkscape.org/namespaces/inkscape"
   width="210mm"
   height="297mm"
   viewBox="0 0 744.09448819 1052.3622047"
   id="svg5648"
   version="1.1"
   inkscape:version="0.91 r13725"
   sodipodi:docname="demon.svg">
  <defs
     id="defs5650" />
  <sodipodi:namedview
     id="base"
     pagecolor="#ffffff"
     bordercolor="#666666"
     borderopacity="1.0"
     inkscape:pageopacity="0.0"
     inkscape:pageshadow="2"
     inkscape:zoom="0.35"
     inkscape:cx="-46.428571"
     inkscape:cy="668.88863"
     inkscape:document-units="px"
     inkscape:current-layer="layer1"
     showgrid="false"
     inkscape:window-width="1366"
     inkscape:window-height="706"
     inkscape:window-x="-8"
     inkscape:window-y="-8"
     inkscape:window-maximized="1" />
  <metadata
     id="metadata5653">
    <rdf:RDF>
      <cc:Work
         rdf:about="">
        <dc:format>image/svg+xml</dc:format>
        <dc:type
           rdf:resource="http://purl.org/dc/dcmitype/StillImage" />
        <dc:title />
      </cc:Work>
    </rdf:RDF>
  </metadata>
  <g
     inkscape:label="Layer 1"
     inkscape:groupmode="layer"
     id="layer1">
    <path
       style="opacity:1;fill:#d40000;fill-opacity:1;fill-rule:evenodd"
       id="path5656"
       sodipodi:type="arc"
       sodipodi:cx="378.55515"
       sodipodi:cy="334.46954"
       sodipodi:rx="114.12742"
       sodipodi:ry="79.728676"
       sodipodi:start="0.0068451115"
       sodipodi:end="0.004871022"
       d="M 492.67989,335.01529 A 114.12742,79.728676 0 0 1 377.83026,414.19661 114.12742,79.728676 0 0 1 264.42968,334.00249 114.12742,79.728676 0 0 1 379.16738,254.74201 114.12742,79.728676 0 0 1 492.68121,334.8579 L 378.55515,334.46954 Z" />
    <path
       style="opacity:1;fill:#000000;fill-opacity:1;fill-rule:evenodd"
       id="path5664"
       sodipodi:type="arc"
       sodipodi:cx="463.28604"
       sodipodi:cy="327.22128"
       sodipodi:rx="12.104424"
       sodipodi:ry="31.408274"
       sodipodi:start="0.0068451115"
       sodipodi:end="0.004871022"
       d="m 475.39018,327.43627 a 12.104424,31.408274 0 0 1 -12.18102,31.19265 12.104424,31.408274 0 0 1 -12.02734,-31.59163 12.104424,31.408274 0 0 1 12.16916,-31.22383 12.104424,31.408274 0 0 1 12.03934,31.56081 l -12.10428,-0.15299 z" />
    <path
       style="opacity:1;fill:#d40000;fill-opacity:1;fill-rule:evenodd"
       d="m 332.43434,241.54683 c 5.71526,-12.95588 10.79371,-23.86574 11.28563,-24.24416 0.49188,-0.37826 7.207,10.222 14.92241,23.55632 l 14.02798,24.24414 -25.31369,0 -25.31357,0 10.39124,-23.5563 z"
       id="path5680"
       inkscape:connector-curvature="0" />
    <path
       inkscape:connector-curvature="0"
       id="path5686"
       d="m 373.93499,239.13083 c 5.71552,-12.95603 10.79397,-23.86578 11.28592,-24.24412 0.49181,-0.37828 7.20693,10.22201 14.92235,23.55631 l 14.02795,24.24403 -25.31364,0 -25.31371,0 10.39113,-23.55622 z"
       style="opacity:1;fill:#d40000;fill-opacity:1;fill-rule:evenodd" />
    <path
       style="opacity:1;fill:#d40000;fill-opacity:1;fill-rule:evenodd"
       id="path5688"
       sodipodi:type="arc"
       sodipodi:cx="364.72165"
       sodipodi:cy="528.95917"
       sodipodi:rx="79.543373"
       sodipodi:ry="155.83353"
       sodipodi:start="0.0068451115"
       sodipodi:end="0.004871022"
       d="m 444.26316,530.02586 a 79.543373,155.83353 0 0 1 -80.04673,154.76369 79.543373,155.83353 0 0 1 -79.03679,-156.74326 79.543373,155.83353 0 0 1 79.96872,-154.91841 79.543373,155.83353 0 0 1 79.11572,156.59035 l -79.54243,-0.75906 z" />
    <path
       style="opacity:1;fill:#d40000;fill-opacity:1;fill-rule:evenodd"
       id="path5690"
       sodipodi:type="arc"
       sodipodi:cx="294.89917"
       sodipodi:cy="743.56439"
       sodipodi:rx="36.21843"
       sodipodi:ry="81.368225"
       sodipodi:start="0.0068451115"
       sodipodi:end="0.004871022"
       d="m 331.11675,744.12136 a 36.21843,81.368225 0 0 1 -36.44762,80.80962 36.21843,81.368225 0 0 1 -35.98777,-81.84325 36.21843,81.368225 0 0 1 36.4121,-80.89039 36.21843,81.368225 0 0 1 36.02371,81.7634 l -36.218,-0.39635 z"
       transform="matrix(0.99749733,-0.07070417,0.14373089,0.98961681,0,0)" />
    <path
       d="m 382.16733,717.48021 a 36.308041,80.960571 0 0 1 -36.5378,80.40475 36.308041,80.960571 0 0 1 -36.07681,-81.4332 36.308041,80.960571 0 0 1 36.50219,-80.48514 36.308041,80.960571 0 0 1 36.11284,81.35376 l -36.30761,-0.39435 z"
       sodipodi:end="0.004871022"
       sodipodi:start="0.0068451115"
       sodipodi:ry="80.960571"
       sodipodi:rx="36.308041"
       sodipodi:cy="716.92603"
       sodipodi:cx="345.86014"
       sodipodi:type="arc"
       id="path5692"
       style="opacity:1;fill:#d40000;fill-opacity:1;fill-rule:evenodd"
       transform="matrix(0.99986281,0.01656389,-0.03392511,0.99942438,0,0)" />
    <path
       transform="matrix(0.99960439,-0.02812573,0.05755795,0.99834217,0,0)"
       d="m 401.30184,809.29832 a 36.298264,81.005478 0 0 1 -36.52797,80.44936 36.298264,81.005478 0 0 1 -36.06709,-81.47838 36.298264,81.005478 0 0 1 36.49237,-80.52978 36.298264,81.005478 0 0 1 36.10311,81.39889 l -36.29783,-0.39457 z"
       sodipodi:end="0.004871022"
       sodipodi:start="0.0068451115"
       sodipodi:ry="81.005478"
       sodipodi:rx="36.298264"
       sodipodi:cy="808.74384"
       sodipodi:cx="365.00443"
       sodipodi:type="arc"
       id="path5694"
       style="opacity:1;fill:#d40000;fill-opacity:1;fill-rule:evenodd" />
    <path
       style="opacity:1;fill:#d40000;fill-opacity:1;fill-rule:evenodd"
       id="path5696"
       sodipodi:type="arc"
       sodipodi:cx="295.12509"
       sodipodi:cy="800.87726"
       sodipodi:rx="36.310593"
       sodipodi:ry="80.948982"
       sodipodi:start="0.0068451115"
       sodipodi:end="0.004871022"
       d="m 331.43483,801.43136 a 36.310593,80.948982 0 0 1 -36.54037,80.39325 36.310593,80.948982 0 0 1 -36.07934,-81.42155 36.310593,80.948982 0 0 1 36.50476,-80.47362 36.310593,80.948982 0 0 1 36.11537,81.34212 l -36.31016,-0.3943 z"
       transform="matrix(0.99992959,-0.01186678,0.02431008,0.99970447,0,0)" />
    <path
       style="opacity:1;fill:#d40000;fill-opacity:1;fill-rule:evenodd"
       d="m 268.80088,461.67872 c -17.04335,-6.4835 -31.34242,-12.12505 -31.77566,-12.53686 -0.43319,-0.41188 15.77106,-2.90697 36.00952,-5.5445 l 36.79719,-4.79555 -5.02144,17.33234 -5.0217,17.33241 -30.98791,-11.78784 z"
       id="path5698"
       inkscape:connector-curvature="0" />
    <path
       inkscape:connector-curvature="0"
       id="path5700"
       d="m 260.45055,571.00989 c -18.76419,-3.4587 -34.57586,-6.5567 -35.13719,-6.88459 -0.56112,-0.32778 14.32483,-5.44918 33.08013,-11.38076 l 34.10035,-10.78482 1.03674,17.66935 1.03694,17.66914 -34.11697,-6.28832 z"
       style="opacity:1;fill:#d40000;fill-opacity:1;fill-rule:evenodd"
       inkscape:transform-center-x="176.37882"
       inkscape:transform-center-y="-7.2481682" />
    <path
       style="opacity:1;fill:#d40000;fill-opacity:1;fill-rule:evenodd"
       d="m 256.81676,534.73199 c -18.66147,-3.71967 -34.3815,-7.03767 -34.93347,-7.37338 -0.55178,-0.33555 14.4777,-5.24817 33.39888,-10.91693 l 34.40172,-10.30674 0.53175,17.68003 0.5315,17.68004 -33.93038,-6.76302 z"
       id="path5702"
       inkscape:connector-curvature="0"
       inkscape:transform-center-x="172.92043"
       inkscape:transform-center-y="4.8320889" />
    <path
       inkscape:connector-curvature="0"
       id="path5704"
       d="m 258.42555,495.50308 c -17.04325,-6.48344 -31.34234,-12.12502 -31.77545,-12.53682 -0.43337,-0.41187 15.771,-2.907 36.00955,-5.54457 l 36.79702,-4.79576 -5.02143,17.33245 -5.02157,17.3326 -30.98812,-11.7879 z"
       style="opacity:1;fill:#d40000;fill-opacity:1;fill-rule:evenodd" />
    <path
       style="opacity:1;fill:#d40000;fill-opacity:1;fill-rule:evenodd"
       d="m 450.44248,864.64643 c 18.60411,1.49022 34.27305,2.82953 34.81986,2.97588 0.54707,0.14646 -14.54698,2.53496 -33.54207,5.30777 l -34.5364,5.04151 -0.28347,-8.01745 -0.2832,-8.01747 33.82528,2.70976 z"
       id="path5706"
       inkscape:connector-curvature="0"
       inkscape:transform-center-x="-24.208861"
       inkscape:transform-center-y="-135.29732" />
    <path
       inkscape:transform-center-y="-135.29728"
       inkscape:transform-center-x="-24.208853"
       inkscape:connector-curvature="0"
       id="path5708"
       d="m 464.27619,847.73413 c 18.60405,1.49032 34.27302,2.82952 34.81998,2.97594 0.54694,0.14659 -14.54713,2.53509 -33.54225,5.30783 l -34.53641,5.04147 -0.28347,-8.01745 -0.28339,-8.01732 33.82554,2.70953 z"
       style="opacity:1;fill:#d40000;fill-opacity:1;fill-rule:evenodd" />
    <path
       style="opacity:1;fill:#d40000;fill-opacity:1;fill-rule:evenodd"
       d="m 350.1489,864.64643 c 18.60396,1.49022 34.27297,2.82953 34.81977,2.97588 0.54693,0.14646 -14.54693,2.53496 -33.54211,5.30777 l -34.53649,5.04151 -0.28337,-8.01745 -0.28346,-8.01747 33.82566,2.70976 z"
       id="path5710"
       inkscape:connector-curvature="0"
       inkscape:transform-center-x="-24.208838"
       inkscape:transform-center-y="-135.29732" />
    <path
       style="opacity:1;fill:#d40000;fill-opacity:1;fill-rule:evenodd"
       d="m 357.06563,850.15022 c 18.60395,1.49032 34.27294,2.82953 34.81988,2.97597 0.54694,0.14644 -14.54709,2.53495 -33.54224,5.30778 l -34.53643,5.04155 -0.28348,-8.01749 -0.28332,-8.01746 33.82559,2.70965 z"
       id="path5712"
       inkscape:connector-curvature="0"
       inkscape:transform-center-x="-24.208853"
       inkscape:transform-center-y="-135.29732" />
  </g>
</svg>
