<?xml version="1.0" encoding="UTF-8" standalone="no"?>
<!-- Created with Inkscape (http://www.inkscape.org/) -->

<svg
   xmlns:osb="http://www.openswatchbook.org/uri/2009/osb"
   xmlns:dc="http://purl.org/dc/elements/1.1/"
   xmlns:cc="http://creativecommons.org/ns#"
   xmlns:rdf="http://www.w3.org/1999/02/22-rdf-syntax-ns#"
   xmlns:svg="http://www.w3.org/2000/svg"
   xmlns="http://www.w3.org/2000/svg"
   xmlns:xlink="http://www.w3.org/1999/xlink"
   xmlns:sodipodi="http://sodipodi.sourceforge.net/DTD/sodipodi-0.dtd"
   xmlns:inkscape="http://www.inkscape.org/namespaces/inkscape"
   width="210mm"
   height="297mm"
   viewBox="0 0 744.09448819 1052.3622047"
   id="svg2"
   version="1.1"
   inkscape:version="0.91 r13725"
   sodipodi:docname="ninja.svg"
   inkscape:export-filename="C:\xampp\htdocs\game-kris\data\characteres\ninja.png"
   inkscape:export-xdpi="90"
   inkscape:export-ydpi="90">
  <defs
     id="defs4">
    <linearGradient
       id="linearGradient4160"
       osb:paint="solid">
      <stop
         style="stop-color:#d40000;stop-opacity:1;"
         offset="0"
         id="stop4162" />
    </linearGradient>
    <linearGradient
       inkscape:collect="always"
       xlink:href="#linearGradient4160"
       id="linearGradient4164"
       x1="431.42858"
       y1="262.36221"
       x2="460.00001"
       y2="262.36221"
       gradientUnits="userSpaceOnUse"
       gradientTransform="matrix(0.79962512,0,0,0.62228117,49.598769,365.66613)" />
  </defs>
  <sodipodi:namedview
     id="base"
     pagecolor="#ffffff"
     bordercolor="#666666"
     borderopacity="1.0"
     inkscape:pageopacity="0.0"
     inkscape:pageshadow="2"
     inkscape:zoom="0.7"
     inkscape:cx="493.57446"
     inkscape:cy="437.19371"
     inkscape:document-units="px"
     inkscape:current-layer="layer1"
     showgrid="false"
     inkscape:window-width="1366"
     inkscape:window-height="706"
     inkscape:window-x="-8"
     inkscape:window-y="-8"
     inkscape:window-maximized="1"
     inkscape:snap-smooth-nodes="false"
     inkscape:object-nodes="false"
     inkscape:snap-midpoints="false"
     inkscape:object-paths="true" />
  <metadata
     id="metadata7">
    <rdf:RDF>
      <cc:Work
         rdf:about="">
        <dc:format>image/svg+xml</dc:format>
        <dc:type
           rdf:resource="http://purl.org/dc/dcmitype/StillImage" />
        <dc:title></dc:title>
      </cc:Work>
    </rdf:RDF>
  </metadata>
  <g
     inkscape:groupmode="layer"
     id="layer3"
     inkscape:label="Layer 3">
    <path
       style="opacity:1;fill:#ff9955;fill-opacity:1;fill-rule:evenodd"
       id="path5608"
       sodipodi:type="arc"
       sodipodi:cx="398.00681"
       sodipodi:cy="529.81836"
       sodipodi:rx="30.842674"
       sodipodi:ry="44.448647"
       sodipodi:start="5.9223908"
       sodipodi:end="5.9103655"
       d="m 426.86372,514.1272 a 30.842674,44.448647 0 0 1 -17.8822,57.23069 30.842674,44.448647 0 0 1 -39.76565,-25.59861 30.842674,44.448647 0 0 1 17.64311,-57.38461 30.842674,44.448647 0 0 1 39.87173,25.25358 l -28.7239,16.19011 z" />
  </g>
  <g
     inkscape:groupmode="layer"
     id="layer2"
     inkscape:label="Layer 2">
    <path
       style="opacity:1;fill:url(#linearGradient4164);fill-opacity:1"
       id="path4138"
       sodipodi:type="arc"
       sodipodi:cx="406.00311"
       sodipodi:cy="528.92932"
       sodipodi:rx="11.423209"
       sodipodi:ry="29.336124"
       sodipodi:start="5.9223875"
       sodipodi:end="5.9103579"
       d="m 416.69084,518.57306 a 11.423209,29.336124 0 0 1 -6.62297,37.77232 11.423209,29.336124 0 0 1 -14.72804,-16.8949 11.423209,29.336124 0 0 1 6.53439,-37.87394 11.423209,29.336124 0 0 1 14.76734,16.6671 l -10.63845,10.68568 z" />
  </g>
  <g
     inkscape:label="Layer 1"
     inkscape:groupmode="layer"
     id="layer1">
    <g
       id="g5600"
       transform="matrix(0.79962512,0,0,0.62228117,42.744837,367.44412)">
      <path
         d="m 481.63936,284.6644 a 81.428574,112.85715 0 0 1 -84.06568,93.28557 81.428574,112.85715 0 0 1 -77.32328,-103.88659 81.428574,112.85715 0 0 1 64.66187,-119.35528 81.428574,112.85715 0 0 1 93.54979,73.9351 l -77.0335,36.57616 z"
         sodipodi:end="5.953133"
         sodipodi:start="0.17316192"
         sodipodi:ry="112.85715"
         sodipodi:rx="81.428574"
         sodipodi:cy="265.21936"
         sodipodi:cx="401.42856"
         sodipodi:type="arc"
         id="path3336"
         style="fill:#000000;fill-opacity:1;fill-rule:evenodd;stroke:#000000;stroke-width:1px;stroke-linecap:butt;stroke-linejoin:miter;stroke-opacity:1" />
    </g>
    <path
       style="opacity:1;fill:#000000;fill-opacity:1;fill-rule:evenodd"
       id="path5626"
       sodipodi:type="arc"
       sodipodi:cx="351.17154"
       sodipodi:cy="708.5022"
       sodipodi:rx="59.400742"
       sodipodi:ry="139.56888"
       sodipodi:start="0.006845108"
       sodipodi:end="0.0048710267"
       d="M 410.57089,709.45755 A 59.400742,139.56888 0 0 1 350.79425,848.06826 59.400742,139.56888 0 0 1 291.77182,707.6846 59.400742,139.56888 0 0 1 351.4902,568.93533 59.400742,139.56888 0 0 1 410.57158,709.18204 l -59.40004,-0.67984 z" />
    <path
       style="opacity:1;fill:#000000;fill-opacity:1;fill-rule:evenodd"
       id="path5632"
       sodipodi:type="arc"
       sodipodi:cx="323.75595"
       sodipodi:cy="912.96545"
       sodipodi:rx="18.277143"
       sodipodi:ry="54.227364"
       sodipodi:start="0.0068451115"
       sodipodi:end="0.004871022"
       d="m 342.03267,913.33664 a 18.277143,54.227364 0 0 1 -18.39281,53.85508 18.277143,54.227364 0 0 1 -18.16074,-54.54393 18.277143,54.227364 0 0 1 18.37488,-53.90892 18.277143,54.227364 0 0 1 18.17888,54.49073 l -18.27693,-0.26415 z" />
    <path
       d="m -420.79896,-914.88129 a 18.274591,52.474194 0 0 1 -18.39023,52.11395 18.274591,52.474194 0 0 1 -18.15821,-52.78053 18.274591,52.474194 0 0 1 18.37231,-52.16605 18.274591,52.474194 0 0 1 18.17634,52.72904 l -18.27437,-0.2556 z"
       sodipodi:end="0.004871022"
       sodipodi:start="0.0068451115"
       sodipodi:ry="52.474194"
       sodipodi:rx="18.274591"
       sodipodi:cy="-915.24048"
       sodipodi:cx="-439.07312"
       sodipodi:type="arc"
       id="path5634"
       style="opacity:1;fill:#000000;fill-opacity:1;fill-rule:evenodd"
       transform="matrix(-0.99995467,-0.00952152,0.0390432,-0.99923752,0,0)" />
    <path
       transform="matrix(-0.90130979,0.4331751,-0.60593514,-0.79551405,0,0)"
       style="opacity:1;fill:#000000;fill-opacity:1;fill-rule:evenodd"
       id="path5636"
       sodipodi:type="arc"
       sodipodi:cx="216.70711"
       sodipodi:cy="-945.65308"
       sodipodi:rx="17.251499"
       sodipodi:ry="56.72591"
       sodipodi:start="0.0068451115"
       sodipodi:end="0.004871022"
       d="m 233.9582,-945.26478 a 17.251499,56.72591 0 0 1 -17.36067,56.33647 17.251499,56.72591 0 0 1 -17.14163,-57.05707 17.251499,56.72591 0 0 1 17.34375,-56.39282 17.251499,56.72591 0 0 1 17.15875,57.00144 l -17.25129,-0.27632 z"
       inkscape:transform-center-x="-112.38624"
       inkscape:transform-center-y="4.4028631" />
    <path
       d="m -398.66541,742.83125 a 18.464138,54.331425 0 0 1 -18.58099,53.95843 18.464138,54.331425 0 0 1 -18.34654,-54.6486 18.464138,54.331425 0 0 1 18.56287,-54.01237 18.464138,54.331425 0 0 1 18.36487,54.59529 l -18.46392,-0.26465 z"
       sodipodi:end="0.004871022"
       sodipodi:start="0.0068451115"
       sodipodi:ry="54.331425"
       sodipodi:rx="18.464138"
       sodipodi:cy="742.45935"
       sodipodi:cx="-417.12912"
       sodipodi:type="arc"
       id="path5638"
       style="opacity:1;fill:#000000;fill-opacity:1;fill-rule:evenodd"
       transform="matrix(-0.96793839,-0.25118774,-0.09851722,0.99513535,0,0)" />
    <path
       transform="matrix(-0.81203318,0.58361128,-0.75295597,-0.6580709,0,0)"
       style="opacity:1;fill:#000000;fill-opacity:1;fill-rule:evenodd"
       id="path5640"
       sodipodi:type="arc"
       sodipodi:cx="231.17599"
       sodipodi:cy="-782.45789"
       sodipodi:rx="16.533327"
       sodipodi:ry="59.534676"
       sodipodi:start="0.0068451115"
       sodipodi:end="0.004871022"
       d="m 247.70893,-782.05037 a 16.533327,59.534676 0 0 1 -16.63795,59.12596 16.533327,59.534676 0 0 1 -16.42803,-59.88223 16.533327,59.534676 0 0 1 16.62174,-59.18506 16.533327,59.534676 0 0 1 16.44444,59.82381 l -16.53314,-0.29 z" />
    <path
       d="m 679.05926,-474.38075 a 14.222071,54.83559 0 0 1 -14.31207,54.45913 14.222071,54.83559 0 0 1 -14.13149,-55.15571 14.222071,54.83559 0 0 1 14.29812,-54.51357 14.222071,54.83559 0 0 1 14.14561,55.1019 l -14.22191,-0.2671 z"
       sodipodi:end="0.004871022"
       sodipodi:start="0.0068451115"
       sodipodi:ry="54.83559"
       sodipodi:rx="14.222071"
       sodipodi:cy="-474.7561"
       sodipodi:cx="664.83752"
       sodipodi:type="arc"
       id="path5642"
       style="opacity:1;fill:#000000;fill-opacity:1;fill-rule:evenodd"
       transform="matrix(-0.01206124,0.99992726,-0.99959637,-0.02840956,0,0)" />
    <path
       transform="matrix(0.67562026,0.7372498,-0.8858518,0.46396831,0,0)"
       style="opacity:1;fill:#000000;fill-opacity:1;fill-rule:evenodd"
       id="path5644"
       sodipodi:type="arc"
       sodipodi:cx="714.4563"
       sodipodi:cy="211.6644"
       sodipodi:rx="15.705388"
       sodipodi:ry="51.367611"
       sodipodi:start="0.0068451115"
       sodipodi:end="0.004871022"
       d="m 730.16132,212.01601 a 15.705388,51.367611 0 0 1 -15.80477,51.01496 15.705388,51.367611 0 0 1 -15.60537,-51.66748 15.705388,51.367611 0 0 1 15.78937,-51.06596 15.705388,51.367611 0 0 1 15.62095,51.61708 l -15.7052,-0.25021 z" />
    <path
       transform="matrix(-0.86222132,0.50653173,-0.67562411,-0.73724627,0,0)"
       style="opacity:1;fill:#000000;fill-opacity:1;fill-rule:evenodd"
       id="path5646"
       sodipodi:type="arc"
       sodipodi:cx="250.993"
       sodipodi:cy="-740.33185"
       sodipodi:rx="16.91608"
       sodipodi:ry="47.138416"
       sodipodi:start="0.0068451115"
       sodipodi:end="0.004871022"
       d="m 267.90868,-740.00918 a 16.91608,47.138416 0 0 1 -17.02313,46.8148 16.91608,47.138416 0 0 1 -16.80834,-47.41361 16.91608,47.138416 0 0 1 17.00653,-46.8616 16.91608,47.138416 0 0 1 16.82514,47.36735 l -16.91588,-0.22961 z" />
    <path
       style="opacity:1;fill:#917c6f;fill-opacity:1;fill-rule:evenodd"
       d="m 514.90606,693.07653 c -8.83545,9.11757 -23.85786,19.36218 -35.45066,24.17637 -18.23804,7.57369 -55.18491,14.91151 -48.87141,9.70618 1.22106,-1.00667 11.84326,-4.81852 23.60505,-8.47078 31.40712,-9.75254 41.1334,-14.33368 54.9988,-25.90479 6.70424,-5.59487 12.61472,-10.19533 13.13431,-10.22333 2.03581,-0.10964 -0.56025,3.64185 -7.41609,10.71635 z"
       id="path5754"
       inkscape:connector-curvature="0" />
    <path
       inkscape:connector-curvature="0"
       id="path5756"
       d="m 290.33218,704.24938 c -14.35548,-2.36584 -32.6445,-8.61514 -43.15928,-14.74774 -16.54238,-9.64777 -40.73635,-32.58379 -32.00266,-30.33861 1.68905,0.43428 10.62614,6.30731 19.86024,13.05098 24.6577,18.00795 34.11056,22.92345 53.45308,27.79552 9.3526,2.35562 17.21151,4.57296 17.46423,4.92745 0.98992,1.38871 -4.47658,1.148 -15.61561,-0.6876 z"
       style="opacity:1;fill:#917c6f;fill-opacity:1;fill-rule:evenodd" />
  </g>
</svg>
